<svg xmlns="http://www.w3.org/2000/svg" viewBox="0 0 320 96" role="img" aria-label="Telegram plugin logo">
  <rect width="320" height="96" rx="24" fill="#F4FBFF"/>
  <circle cx="48" cy="48" r="28" fill="#229ED9"/>
  <path d="M31 47.6 62.9 35c1.5-.6 2.9.5 2.5 2L60 62.4c-.3 1.6-2.1 2.3-3.4 1.4l-8.9-6.4-4.5 4.3c-.9.8-2.4.4-2.7-.8L38 52l-7.5-2.4c-1.8-.6-1.8-3.1 0-3.8Z" fill="#fff"/>
  <path d="m39.1 51.3 16.1-10.5c.6-.4 1.3.3.9.9L45.5 54.2a1 1 0 0 0-.2.5l-.7 5.1c-.1.9-1.3 1.1-1.7.3l-3.8-7.4a1.4 1.4 0 0 1 .4-1.4Z" fill="#CDEEFF"/>
  <text x="92" y="44" font-family="Arial, sans-serif" font-size="24" font-weight="700" fill="#103246">Telegram</text>
  <text x="92" y="68" font-family="Arial, sans-serif" font-size="15" fill="#45677B">Local Codex plugin for bot messaging</text>
</svg>
